<mxfile host="app.diagrams.net" modified="2024-02-08T11:22:22.848Z" agent="Mozilla/5.0 (Macintosh; Intel Mac OS X 10.15; rv:122.0) Gecko/20100101 Firefox/122.0" etag="BKHa8eLKywWkFtYyxJqa" version="21.2.6" type="device">
  <diagram name="Page-1" id="vlhYFnj0TNU3gic4KWY8">
    <mxGraphModel dx="876" dy="1137" grid="1" gridSize="10" guides="1" tooltips="1" connect="1" arrows="1" fold="1" page="1" pageScale="1" pageWidth="827" pageHeight="1169" math="0" shadow="0">
      <root>
        <mxCell id="0" />
        <mxCell id="1" parent="0" />
        <mxCell id="C399oh0922e3HdgfdxeG-2" value="&lt;font style=&quot;font-size: 15px;&quot;&gt;simple-iot&lt;/font&gt;" style="rounded=1;whiteSpace=wrap;html=1;verticalAlign=top;" vertex="1" parent="1">
          <mxGeometry x="240" y="490" width="450" height="270" as="geometry" />
        </mxCell>
        <mxCell id="C399oh0922e3HdgfdxeG-26" style="edgeStyle=orthogonalEdgeStyle;rounded=0;orthogonalLoop=1;jettySize=auto;html=1;exitX=1;exitY=0.25;exitDx=0;exitDy=0;curved=1;" edge="1" parent="1" source="C399oh0922e3HdgfdxeG-3" target="C399oh0922e3HdgfdxeG-20">
          <mxGeometry relative="1" as="geometry" />
        </mxCell>
        <mxCell id="C399oh0922e3HdgfdxeG-29" value="grafana:3000" style="edgeLabel;html=1;align=center;verticalAlign=middle;resizable=0;points=[];" vertex="1" connectable="0" parent="C399oh0922e3HdgfdxeG-26">
          <mxGeometry x="-0.2952" y="3" relative="1" as="geometry">
            <mxPoint y="-27" as="offset" />
          </mxGeometry>
        </mxCell>
        <mxCell id="C399oh0922e3HdgfdxeG-27" style="edgeStyle=orthogonalEdgeStyle;rounded=0;orthogonalLoop=1;jettySize=auto;html=1;exitX=1;exitY=0.75;exitDx=0;exitDy=0;curved=1;" edge="1" parent="1" source="C399oh0922e3HdgfdxeG-3" target="C399oh0922e3HdgfdxeG-19">
          <mxGeometry relative="1" as="geometry" />
        </mxCell>
        <mxCell id="C399oh0922e3HdgfdxeG-28" value="mosquitto:1883" style="edgeLabel;html=1;align=center;verticalAlign=middle;resizable=0;points=[];" vertex="1" connectable="0" parent="C399oh0922e3HdgfdxeG-27">
          <mxGeometry x="-0.0286" y="-2" relative="1" as="geometry">
            <mxPoint y="-16" as="offset" />
          </mxGeometry>
        </mxCell>
        <mxCell id="C399oh0922e3HdgfdxeG-3" value="&lt;div&gt;traefik&lt;/div&gt;&lt;div&gt;(Reverse Proxy)&lt;br&gt;&lt;/div&gt;" style="rounded=1;whiteSpace=wrap;html=1;verticalAlign=top;" vertex="1" parent="1">
          <mxGeometry x="260" y="530" width="90" height="200" as="geometry" />
        </mxCell>
        <mxCell id="C399oh0922e3HdgfdxeG-13" style="edgeStyle=orthogonalEdgeStyle;rounded=0;orthogonalLoop=1;jettySize=auto;html=1;exitX=0.5;exitY=0.5;exitDx=0;exitDy=0;exitPerimeter=0;elbow=vertical;curved=1;" edge="1" parent="1" source="C399oh0922e3HdgfdxeG-4" target="C399oh0922e3HdgfdxeG-3">
          <mxGeometry relative="1" as="geometry" />
        </mxCell>
        <mxCell id="C399oh0922e3HdgfdxeG-16" value="grafana.simple-iot...." style="edgeLabel;html=1;align=center;verticalAlign=middle;resizable=0;points=[];" vertex="1" connectable="0" parent="C399oh0922e3HdgfdxeG-13">
          <mxGeometry x="-0.5541" y="-7" relative="1" as="geometry">
            <mxPoint x="17" y="-17" as="offset" />
          </mxGeometry>
        </mxCell>
        <mxCell id="C399oh0922e3HdgfdxeG-4" value="User" style="shape=umlActor;verticalLabelPosition=bottom;verticalAlign=top;html=1;outlineConnect=0;" vertex="1" parent="1">
          <mxGeometry x="50" y="490" width="30" height="60" as="geometry" />
        </mxCell>
        <mxCell id="C399oh0922e3HdgfdxeG-14" style="edgeStyle=orthogonalEdgeStyle;rounded=0;orthogonalLoop=1;jettySize=auto;html=1;exitX=0.5;exitY=0.5;exitDx=0;exitDy=0;exitPerimeter=0;entryX=0;entryY=0.5;entryDx=0;entryDy=0;curved=1;" edge="1" parent="1" source="C399oh0922e3HdgfdxeG-7" target="C399oh0922e3HdgfdxeG-3">
          <mxGeometry relative="1" as="geometry" />
        </mxCell>
        <mxCell id="C399oh0922e3HdgfdxeG-15" value="mqtt.simple-iot...." style="edgeLabel;html=1;align=center;verticalAlign=middle;resizable=0;points=[];" vertex="1" connectable="0" parent="C399oh0922e3HdgfdxeG-14">
          <mxGeometry x="-0.5579" y="3" relative="1" as="geometry">
            <mxPoint x="22" y="13" as="offset" />
          </mxGeometry>
        </mxCell>
        <mxCell id="C399oh0922e3HdgfdxeG-7" value="D1Mini" style="shape=umlActor;verticalLabelPosition=bottom;verticalAlign=top;html=1;outlineConnect=0;" vertex="1" parent="1">
          <mxGeometry x="50" y="690" width="30" height="60" as="geometry" />
        </mxCell>
        <mxCell id="C399oh0922e3HdgfdxeG-19" value="&lt;div&gt;mosquitto&lt;/div&gt;&lt;div&gt;(MQTT Broker)&lt;br&gt;&lt;/div&gt;" style="rounded=1;whiteSpace=wrap;html=1;verticalAlign=top;" vertex="1" parent="1">
          <mxGeometry x="440" y="660" width="90" height="70" as="geometry" />
        </mxCell>
        <mxCell id="C399oh0922e3HdgfdxeG-25" style="edgeStyle=orthogonalEdgeStyle;rounded=0;orthogonalLoop=1;jettySize=auto;html=1;exitX=1;exitY=0.5;exitDx=0;exitDy=0;" edge="1" parent="1" source="C399oh0922e3HdgfdxeG-20" target="C399oh0922e3HdgfdxeG-22">
          <mxGeometry relative="1" as="geometry" />
        </mxCell>
        <mxCell id="C399oh0922e3HdgfdxeG-20" value="&lt;div&gt;grafana&lt;/div&gt;&lt;div&gt;&lt;br&gt;&lt;/div&gt;" style="rounded=1;whiteSpace=wrap;html=1;verticalAlign=top;" vertex="1" parent="1">
          <mxGeometry x="440" y="530" width="90" height="70" as="geometry" />
        </mxCell>
        <mxCell id="C399oh0922e3HdgfdxeG-23" style="edgeStyle=orthogonalEdgeStyle;rounded=0;orthogonalLoop=1;jettySize=auto;html=1;entryX=1;entryY=0.5;entryDx=0;entryDy=0;" edge="1" parent="1" source="C399oh0922e3HdgfdxeG-21" target="C399oh0922e3HdgfdxeG-19">
          <mxGeometry relative="1" as="geometry" />
        </mxCell>
        <mxCell id="C399oh0922e3HdgfdxeG-24" style="edgeStyle=orthogonalEdgeStyle;rounded=0;orthogonalLoop=1;jettySize=auto;html=1;exitX=0.5;exitY=0;exitDx=0;exitDy=0;" edge="1" parent="1" source="C399oh0922e3HdgfdxeG-21" target="C399oh0922e3HdgfdxeG-22">
          <mxGeometry relative="1" as="geometry" />
        </mxCell>
        <mxCell id="C399oh0922e3HdgfdxeG-21" value="&lt;div&gt;telegraf&lt;/div&gt;&lt;div&gt;(Data Collection)&lt;br&gt;&lt;/div&gt;" style="rounded=1;whiteSpace=wrap;html=1;verticalAlign=top;" vertex="1" parent="1">
          <mxGeometry x="570" y="660" width="90" height="70" as="geometry" />
        </mxCell>
        <mxCell id="C399oh0922e3HdgfdxeG-22" value="&lt;div&gt;influxdb&lt;/div&gt;&lt;div&gt;(DB fÃ¼r Zeit-reihen)&lt;br&gt;&lt;/div&gt;" style="rounded=1;whiteSpace=wrap;html=1;verticalAlign=top;" vertex="1" parent="1">
          <mxGeometry x="570" y="530" width="90" height="70" as="geometry" />
        </mxCell>
      </root>
    </mxGraphModel>
  </diagram>
</mxfile>
